<svg width="16" height="15" viewBox="0 0 16 15" fill="none" xmlns="http://www.w3.org/2000/svg">
<path d="M8 0.1875C6.55373 0.1875 5.13993 0.616371 3.9374 1.41988C2.73486 2.22339 1.7976 3.36544 1.24413 4.70163C0.690668 6.03781 0.545857 7.50811 0.828011 8.9266C1.11017 10.3451 1.80661 11.648 2.82928 12.6707C3.85196 13.6934 5.15492 14.3898 6.57341 14.672C7.99189 14.9541 9.46219 14.8093 10.7984 14.2559C12.1346 13.7024 13.2766 12.7651 14.0801 11.5626C14.8836 10.3601 15.3125 8.94628 15.3125 7.5C15.3088 5.56175 14.5372 3.70394 13.1666 2.33339C11.7961 0.962832 9.93826 0.191217 8 0.1875ZM11.9375 8.0625H8C7.85082 8.0625 7.70775 8.00324 7.60226 7.89775C7.49677 7.79226 7.4375 7.64918 7.4375 7.5V3.5625C7.4375 3.41332 7.49677 3.27024 7.60226 3.16475C7.70775 3.05926 7.85082 3 8 3C8.14919 3 8.29226 3.05926 8.39775 3.16475C8.50324 3.27024 8.5625 3.41332 8.5625 3.5625V6.9375H11.9375C12.0867 6.9375 12.2298 6.99676 12.3353 7.10225C12.4407 7.20774 12.5 7.35082 12.5 7.5C12.5 7.64918 12.4407 7.79226 12.3353 7.89775C12.2298 8.00324 12.0867 8.0625 11.9375 8.0625Z" fill="white"/>
</svg>
