<svg width="18" height="18" viewBox="0 0 18 18" fill="none" xmlns="http://www.w3.org/2000/svg">
<path d="M17.125 9.00003C17.1209 10.9851 16.3924 12.9004 15.0762 14.3864C13.76 15.8723 11.9466 16.8267 9.97652 17.0703C9.93255 17.0747 9.88817 17.0698 9.84616 17.0562C9.80415 17.0425 9.76542 17.0203 9.7324 16.991C9.69938 16.9616 9.6728 16.9258 9.6543 16.8856C9.63581 16.8455 9.62582 16.802 9.62496 16.7578V10.875H11.5C11.5854 10.8752 11.67 10.8578 11.7485 10.824C11.827 10.7902 11.8977 10.7406 11.9563 10.6784C12.0149 10.6161 12.0601 10.5426 12.0891 10.4622C12.1181 10.3818 12.1303 10.2963 12.125 10.211C12.1111 10.0494 12.0365 9.899 11.9162 9.79026C11.7958 9.68151 11.6387 9.62246 11.4765 9.62503H9.62496V7.75003C9.62496 7.41851 9.75665 7.10057 9.99107 6.86615C10.2255 6.63172 10.5434 6.50003 10.875 6.50003H12.125C12.2104 6.5002 12.295 6.48283 12.3735 6.44901C12.452 6.41518 12.5227 6.36562 12.5813 6.30338C12.6399 6.24114 12.6851 6.16755 12.7141 6.08716C12.7431 6.00676 12.7553 5.92127 12.75 5.83597C12.7361 5.67435 12.6615 5.524 12.5412 5.41526C12.4208 5.30651 12.2637 5.24746 12.1015 5.25003H10.875C10.2119 5.25003 9.57603 5.51342 9.10719 5.98226C8.63835 6.4511 8.37496 7.08699 8.37496 7.75003V9.62503H6.49996C6.41449 9.62486 6.32989 9.64223 6.2514 9.67605C6.17291 9.70987 6.10219 9.75944 6.04361 9.82167C5.98503 9.88391 5.93984 9.95751 5.91083 10.0379C5.88182 10.1183 5.86961 10.2038 5.87496 10.2891C5.88878 10.4507 5.9634 10.6011 6.08375 10.7098C6.20409 10.8185 6.36121 10.8776 6.52339 10.875H8.37496V16.7578C8.37517 16.8016 8.36618 16.845 8.34856 16.8851C8.33094 16.9252 8.30508 16.9612 8.27267 16.9906C8.24026 17.0201 8.20201 17.0424 8.16041 17.0562C8.11881 17.0699 8.07479 17.0747 8.03121 17.0703C3.90621 16.5703 0.718706 12.9844 0.882768 8.69534C0.974864 6.5772 1.89125 4.57896 3.43631 3.12714C4.98137 1.67533 7.03272 0.884945 9.15249 0.92471C11.2723 0.964474 13.2925 1.83123 14.782 3.33998C16.2716 4.84872 17.1124 6.87993 17.125 9.00003Z" fill="white"/>
</svg>
