<svg width="18" height="19" viewBox="0 0 18 19" fill="none" xmlns="http://www.w3.org/2000/svg">
<g clip-path="url(#clip0_158_151)">
<path d="M16.5 6.15125V13.25C16.5 13.8239 16.2808 14.3761 15.887 14.7937C15.4933 15.2112 14.9549 15.4626 14.382 15.4962L14.25 15.5H3.75C3.17609 15.5 2.62386 15.2808 2.2063 14.887C1.78874 14.4933 1.53742 13.9549 1.50375 13.382L1.5 13.25V6.15125L8.58375 10.874L8.67075 10.9235C8.77328 10.9736 8.88589 10.9996 9 10.9996C9.11411 10.9996 9.22672 10.9736 9.32925 10.9235L9.41625 10.874L16.5 6.15125Z" fill="white"/>
<path d="M14.25 3.5C15.06 3.5 15.7702 3.9275 16.1662 4.57025L8.99999 9.34775L1.83374 4.57025C2.02179 4.26483 2.28015 4.0088 2.58727 3.82354C2.89439 3.63827 3.24136 3.52914 3.59924 3.50525L3.74999 3.5H14.25Z" fill="white"/>
</g>
<defs>
<clipPath id="clip0_158_151">
<rect width="18" height="18" fill="white" transform="translate(0 0.5)"/>
</clipPath>
</defs>
</svg>
