<svg width="15" height="15" viewBox="0 0 15 15" fill="none" xmlns="http://www.w3.org/2000/svg">
<path d="M13.6094 9.63747L10.3117 8.23122C10.1416 8.15496 9.95478 8.12334 9.76901 8.13933C9.58324 8.15532 9.40461 8.21841 9.25 8.32263L7.48516 9.49685C6.40955 8.97444 5.53868 8.10852 5.01016 7.03591L6.17734 5.24997C6.28087 5.0952 6.3441 4.91702 6.36129 4.73161C6.37848 4.5462 6.34909 4.35943 6.27578 4.18826L4.8625 0.8906C4.76388 0.66793 4.5969 0.482462 4.38577 0.361093C4.17463 0.239723 3.93033 0.188762 3.68828 0.2156C2.73878 0.339986 1.86675 0.80494 1.23432 1.52402C0.601896 2.24309 0.252111 3.16736 0.25 4.12498C0.25 9.70779 4.79219 14.25 10.375 14.25C11.3326 14.2479 12.2569 13.8981 12.976 13.2657C13.695 12.6332 14.16 11.7612 14.2844 10.8117C14.3112 10.5696 14.2603 10.3253 14.1389 10.1142C14.0175 9.90308 13.832 9.73609 13.6094 9.63747Z" fill="white"/>
</svg>
