<svg width="18" height="18" viewBox="0 0 18 18" fill="none" xmlns="http://www.w3.org/2000/svg">
<path d="M9.00013 0.875C7.58904 0.874893 6.20225 1.24229 4.97629 1.94101C3.75034 2.63973 2.7275 3.64569 2.00846 4.85985C1.28943 6.074 0.899007 7.45448 0.875627 8.86538C0.852248 10.2763 1.19672 11.6689 1.87513 12.9062L1.21107 15.25C1.14912 15.4636 1.14564 15.6899 1.20098 15.9052C1.25633 16.1206 1.36848 16.3172 1.52572 16.4744C1.68296 16.6316 1.87953 16.7438 2.0949 16.7991C2.31028 16.8545 2.53656 16.851 2.75013 16.7891L5.09388 16.125C6.18004 16.7203 7.38793 17.0594 8.62522 17.1164C9.86251 17.1734 11.0965 16.9467 12.2327 16.4538C13.369 15.9608 14.3775 15.2146 15.1813 14.2721C15.985 13.3297 16.5626 12.216 16.8699 11.0161C17.1772 9.81624 17.2062 8.56199 16.9545 7.34922C16.7029 6.13645 16.1773 4.99727 15.4179 4.01874C14.6586 3.04022 13.6855 2.24825 12.5732 1.70339C11.4609 1.15852 10.2387 0.875172 9.00013 0.875ZM10.8829 14H10.8751C9.05105 13.9979 7.30238 13.2719 6.01329 11.9813C4.72421 10.6908 4.00013 8.94127 4.00013 7.11719C4.0022 6.37262 4.29943 5.65926 4.82665 5.1335C5.35387 4.60774 6.06806 4.3125 6.81263 4.3125C7.0173 4.31295 7.21823 4.36735 7.39517 4.47022C7.57211 4.57309 7.71879 4.72079 7.82044 4.89844L8.7345 6.5C8.84489 6.69181 8.90168 6.90976 8.89893 7.13105C8.89618 7.35233 8.834 7.56881 8.71888 7.75781L8.16419 8.6875C8.44309 9.16176 8.83837 9.55703 9.31263 9.83594L10.2423 9.28125C10.4313 9.16613 10.6478 9.10394 10.8691 9.1012C11.0904 9.09845 11.3083 9.15524 11.5001 9.26562L13.1017 10.1797C13.2793 10.2813 13.427 10.428 13.5299 10.605C13.6328 10.7819 13.6872 10.9828 13.6876 11.1875C13.6876 11.9321 13.3924 12.6463 12.8666 13.1735C12.3409 13.7007 11.6275 13.9979 10.8829 14Z" fill="white"/>
<path d="M9.66419 11.0859C9.57726 11.1368 9.47946 11.1661 9.37891 11.1716C9.27836 11.177 9.17797 11.1584 9.08607 11.1172C8.10366 10.6818 7.31836 9.89647 6.88294 8.91406C6.84178 8.82216 6.82314 8.72177 6.82857 8.62122C6.83401 8.52067 6.86336 8.42286 6.91419 8.33594L7.64856 7.11719L6.76575 5.5625C6.36023 5.57269 5.97475 5.74098 5.69159 6.03144C5.40842 6.3219 5.25 6.71154 5.25013 7.11719C5.2491 7.85653 5.39384 8.58882 5.67606 9.27218C5.95828 9.95554 6.37246 10.5766 6.89489 11.0997C7.41732 11.6229 8.03776 12.0379 8.72073 12.3211C9.40369 12.6042 10.1358 12.75 10.8751 12.75H10.8829C11.2886 12.7501 11.6782 12.5917 11.9687 12.3085C12.2592 12.0254 12.4274 11.6399 12.4376 11.2344L10.8829 10.3516L9.66419 11.0859Z" fill="white"/>
</svg>
